PathFileType	4	(X/Y/Z)	D:\TRACE\spotREDO_2-26-24\spot_justArm_Motion_3_2-v60.trc
DataRate	CameraRate	NumFrames	NumMarkers	Units	OrigDataRate	OrigDataStartFrame	OrigNumFrames
100.00	100.00	      42	9	mm	100.00	4376	      7000
Frame#	Time	front left toe			Front right toe			aft left toe			aft right toe			Arm			FL body			FR body			AL Body			AR Body			
		X1	Y1	Z1	X2	Y2	Z2	X3	Y3	Z3	X4	Y4	Z4	X5	Y5	Z5	X6	Y6	Z6	X7	Y7	Z7	X8	Y8	Z8	X9	Y9	Z9	

4376	43.750	-200.30457	6.46925	-277.10870	287.18912	8.95786	-241.92924	-235.05342	39.95434	334.88104	250.16609	44.50116	376.99100	-65.68996	750.74780	-765.68427	-18.37012	542.56116	-324.64865	136.66556	549.07806	-317.86899	-65.89871	564.64612	557.58344	81.75751	567.09265	565.92603	
4377	43.760	-200.08060	6.12397	-277.37360	287.49289	8.67928	-242.04218	-234.60960	40.28592	334.66849	250.39754	45.16713	376.95663	-65.61327	750.56519	-765.78271	-17.93622	542.15424	-324.99603	136.94252	548.62567	-318.20590	-65.74487	565.19562	557.27081	81.62982	567.69409	565.62189	
4378	43.770	-199.78001	5.82431	-277.55090	287.88510	8.28131	-242.19012	-234.50128	40.66705	334.43262	250.68053	45.69754	376.65536	-65.51328	750.33331	-765.77362	-17.69922	541.67358	-325.40527	137.40491	548.18213	-318.41330	-65.56299	565.62152	556.90100	82.03623	568.26630	565.27985	
4379	43.780	-199.31485	5.33410	-277.78360	288.35031	8.04809	-242.13173	-234.35376	41.16191	334.15442	251.04498	46.06863	376.49216	-65.55688	750.18329	-765.88300	-17.55711	541.08710	-325.62308	137.43164	547.70557	-318.70352	-65.43158	566.12756	556.55951	82.52819	568.68146	565.63824	
4380	43.790	-198.84801	4.84422	-277.88806	288.55917	7.69124	-242.19989	-233.91539	41.71119	333.98941	251.80786	46.61416	376.32477	-65.63446	749.91528	-766.19025	-17.40624	540.46259	-325.75769	137.57637	547.20111	-318.92902	-65.17182	566.60480	556.44440	82.04318	569.21387	564.75818	
4381	43.800	-198.70174	4.65979	-277.99921	288.58597	7.38394	-242.37704	-233.69295	42.01379	333.87418	252.18390	46.90210	376.04410	-65.54360	749.70966	-766.23108	-16.84602	539.95752	-325.96231	137.96320	546.73920	-319.08698	-65.13847	567.20221	556.02539	82.42856	569.77948	564.48785	
4382	43.810	-198.28334	4.30281	-278.19315	288.80237	7.04287	-242.78516	-233.32542	42.28941	333.67181	252.51414	47.31300	375.86179	-65.62075	749.44427	-766.41156	-16.62107	539.66278	-326.14349	138.10909	546.11395	-318.95993	-64.99623	567.66687	555.72052	83.00617	570.26318	564.64917	
4383	43.820	-197.74730	3.81402	-278.23593	289.40332	6.48588	-242.99126	-232.86725	42.68867	333.34390	252.67296	47.66710	375.67865	-65.74908	749.25946	-766.69031	-16.48432	539.24634	-326.51178	138.51834	545.77881	-319.73978	-64.97047	568.27344	555.30566	82.87075	570.67621	563.81342	
4384	43.830	-197.41162	3.53930	-278.31427	289.84689	6.16813	-243.19026	-232.53938	42.94112	333.17575	252.87561	47.97338	375.57297	-65.58822	749.00812	-766.84369	-16.21632	538.76550	-326.86847	138.79749	545.29327	-319.98709	-64.45000	568.90527	555.30536	83.07443	571.28662	563.63965	
4385	43.840	-197.32141	3.39746	-278.41183	289.96997	6.07923	-243.11656	-232.27602	43.41266	332.79782	253.29919	48.53032	375.26700	-65.58263	748.81897	-767.03467	-15.96227	538.36493	-327.07632	139.01352	544.84766	-320.24658	-64.13245	569.37762	554.98395	83.27416	572.08966	563.28955	
4386	43.850	-197.04634	3.12067	-278.60773	290.56848	5.91571	-243.09460	-232.01157	43.80990	332.72629	253.33995	48.84198	375.15753	-65.45923	748.60468	-767.15369	-15.76560	537.76019	-327.27527	139.18039	544.39984	-320.50900	-63.88087	570.02454	554.36212	83.75270	572.32111	563.09344	
4387	43.860	-197.06697	2.99478	-278.67255	290.86865	5.32730	-243.48920	-231.55754	44.24544	332.62396	253.98430	49.25021	375.07953	-63.56351	748.34711	-766.02173	-15.39187	537.19910	-327.50052	139.39485	543.85956	-320.75220	-63.59960	570.56958	554.12555	84.18863	572.87878	562.81305	
4388	43.870	-195.59996	1.71279	-278.51428	291.10605	5.01634	-243.50058	-231.02043	44.35936	332.63144	254.54752	49.67617	374.80301	-65.11464	748.08124	-767.56860	-15.20420	536.84686	-327.65530	139.64093	543.07666	-320.53586	-63.20248	571.04303	554.03937	84.36606	573.41211	562.48615	
4389	43.880	-195.25543	1.33232	-278.71082	291.60645	4.80938	-243.70178	-230.48360	44.64464	332.42484	254.89899	49.98052	374.38760	-64.69959	747.70392	-767.85016	-14.98371	536.37982	-327.94388	139.82994	542.91040	-321.28076	-63.00076	571.63550	553.82471	84.67010	573.93335	562.18329	
4390	43.890	-194.91209	1.15646	-278.78253	292.04224	4.60854	-243.97034	-230.35011	44.76632	332.32791	255.09283	50.16199	374.15515	-64.50330	747.47656	-768.10834	-14.76823	535.99573	-328.18784	140.05756	542.37744	-321.49286	-62.67969	572.07336	553.74091	84.89683	574.54749	561.86694	
4391	43.900	-194.49089	0.93989	-278.98871	292.39307	4.77042	-243.86243	-229.98210	45.11629	332.16638	255.31635	50.44920	373.99057	-64.28523	747.21832	-768.27423	-15.17072	535.91534	-328.95062	140.28889	541.94684	-321.71069	-62.24960	572.72955	553.40601	85.18930	574.84912	561.67432	
4392	43.910	-194.39914	0.94659	-279.23917	292.70978	4.91413	-243.92690	-229.71989	45.41655	332.04309	255.67754	50.85110	373.92883	-63.98421	747.04529	-768.39478	-14.39759	535.26453	-328.68909	140.60654	541.48584	-321.92642	-62.09341	573.07062	552.96771	85.41324	575.37738	561.40253	
4393	43.920	-194.19618	0.74213	-279.45926	293.22842	4.63766	-243.96921	-229.53360	45.77543	331.69745	255.75174	51.16528	373.65109	-62.50452	746.80286	-767.67767	-14.27749	534.83405	-328.97537	140.82953	541.09979	-322.16785	-61.94478	573.60345	552.26337	85.81604	575.85333	561.01532	
4394	43.930	-193.92731	0.46848	-279.63028	293.43768	4.09495	-244.25760	-229.14906	46.03215	331.58170	256.06348	51.40312	373.67194	-61.09835	746.62146	-767.05377	-13.95597	534.44366	-329.19672	141.00667	540.75873	-322.79550	-61.53351	574.24518	552.21851	86.15308	576.27136	560.83417	
4395	43.940	-193.65309	0.28439	-279.74734	293.92505	3.63229	-244.46246	-228.61058	46.34636	331.38867	256.87762	51.90730	373.66141	-62.89051	746.39240	-768.71454	-13.80776	534.03784	-329.60446	141.22472	539.95807	-322.48462	-61.29470	574.74841	552.13495	86.43877	576.95642	560.45880	
4396	43.950	-193.41203	0.08178	-279.86383	294.20450	3.44729	-244.62761	-228.19510	46.56862	331.25284	257.34482	52.19517	373.56842	-62.75421	746.28333	-768.65723	-13.57184	533.53168	-329.70264	141.59895	539.65112	-323.05576	-61.15582	575.34650	551.87195	86.98501	577.40106	560.73242	
4397	43.960	-193.21120	-0.10819	-279.92737	294.19897	3.21117	-244.76465	-227.98958	46.81643	331.08591	257.67676	52.54332	373.30054	-62.55964	746.10437	-768.71204	-13.21307	533.21112	-329.96124	141.93394	539.16931	-323.20709	-60.79689	575.90698	551.67285	86.80667	577.92780	559.91547	
4398	43.970	-192.87450	-0.38444	-279.99609	294.33932	3.01532	-244.78557	-227.74380	47.19365	330.78558	257.70364	52.62444	372.93219	-62.23532	745.80939	-768.78748	-12.79915	532.83136	-330.16779	142.16737	538.74597	-323.32660	-60.50791	576.39331	551.36609	87.04707	578.44995	559.54919	
4399	43.980	-192.51802	-0.60944	-280.18066	294.61533	3.17850	-244.63593	-227.59431	47.40280	330.62717	257.81021	52.77991	372.64587	-61.99936	745.60718	-768.95044	-12.50130	532.54559	-330.33813	142.54535	538.34619	-323.49002	-60.05003	577.12250	551.21088	87.40098	578.93646	559.55475	
4400	43.990	-192.08670	-0.84122	-280.30807	294.73364	2.85837	-244.84785	-227.38022	47.58127	330.48898	258.08240	53.07152	372.51971	-60.12078	745.35956	-767.54169	-12.21013	532.39923	-330.51141	142.83398	538.03528	-323.48285	-59.68458	577.62006	550.86102	87.49213	579.51489	559.15741	
4401	44.000	-191.76640	-0.91643	-280.46487	295.28278	2.22596	-245.24672	-227.17836	47.71206	330.40576	258.22046	53.23232	372.45129	-62.14481	744.67310	-769.15594	-12.07584	532.51337	-330.62891	143.17892	537.92950	-323.71280	-59.60761	578.22479	550.66595	87.83529	579.87024	559.14093	
4402	44.010	-191.34084	-0.95167	-280.50845	295.81793	2.01456	-245.31917	-226.86743	47.91752	330.19086	258.41528	53.45718	372.37418	-62.16455	743.46344	-769.70911	-11.73538	532.74725	-330.63556	143.57042	537.89429	-323.86118	-59.39666	578.58496	550.47235	88.18329	579.95996	559.01569	
4403	44.020	-190.90247	-1.06980	-280.60590	296.18253	2.02499	-245.28473	-226.35458	48.09122	330.05185	258.90353	53.93704	372.29752	-62.55519	741.37317	-770.64178	-11.39840	532.99976	-330.63776	143.98114	537.91840	-324.01224	-59.38823	578.98529	550.10901	88.50589	579.96686	558.93439	
4404	44.030	-190.74472	-1.15575	-280.71371	296.74243	2.16026	-245.17712	-226.12401	48.30322	329.95258	259.28027	54.27077	372.19861	-62.97226	738.53162	-772.04309	-10.96407	533.40173	-330.71072	144.25073	537.88934	-324.05530	-58.78923	579.37317	550.41608	88.76941	580.14612	558.87225	
4405	44.040	-190.61514	-1.45897	-280.76193	296.98315	1.99836	-245.24471	-225.88072	48.55574	329.89096	259.72473	54.59959	372.08527	-63.01379	734.59784	-773.61090	-11.27189	534.22034	-331.15973	144.45947	537.81665	-324.06180	-58.38226	579.88953	550.49335	89.37930	580.19043	558.87799	
4406	44.050	-190.55251	-1.73936	-280.79480	297.02832	1.87089	-245.44308	-225.52821	48.76443	329.96622	260.09146	54.82539	372.04752	-63.62512	729.78894	-775.90906	-10.56763	534.04211	-330.62036	144.59134	537.76276	-324.04657	-57.82587	580.58600	550.49829	89.79407	580.33521	559.02618	
4407	44.060	-190.39235	-2.00192	-280.85718	297.12704	1.78090	-245.48148	-225.33817	48.99583	329.79562	260.28815	54.89684	372.00104	-63.50684	723.88416	-777.87622	-10.36092	534.29858	-330.43460	144.63779	537.65906	-323.99957	-57.10749	581.28461	550.68213	90.30338	580.75574	559.06769	
4408	44.070	-190.07005	-2.21556	-280.94003	297.33078	1.67554	-245.45256	-225.22360	49.17232	329.71069	260.29388	54.96645	371.88623	-64.03749	717.59082	-780.78613	-10.23059	534.30347	-330.32773	144.75479	537.46161	-323.89905	-56.70380	581.82123	550.81165	90.79715	581.25928	559.08038	
4409	44.080	-189.76457	-2.48221	-281.05093	297.31366	1.48023	-245.74033	-225.05225	49.40634	329.40094	260.61554	55.30303	371.75128	-63.91088	710.59418	-783.25867	-10.18898	534.13086	-330.23886	144.85193	537.12463	-323.75891	-55.98196	582.80475	550.97034	91.82975	581.92462	559.52618	
4410	44.090	-189.58876	-2.74719	-281.07471	297.54773	1.25106	-245.94716	-224.72351	49.55829	329.32367	260.75381	55.43677	371.48596	-63.62403	703.12720	-785.59827	-10.04840	533.66125	-330.26602	144.93793	536.34192	-323.49811	-55.55928	583.75592	551.08154	91.81435	583.13281	559.07599	
4411	44.100	-189.37952	-2.95255	-281.10519	297.81934	1.08909	-246.10822	-224.24391	49.62962	329.22000	260.75208	55.44286	371.16089	-63.69324	695.85736	-787.83759	-10.22091	532.55554	-330.25720	145.00531	535.78082	-323.83575	-55.18190	585.15118	551.14160	92.45419	584.27698	559.07983	
4412	44.110	-189.15610	-3.16420	-281.11026	298.10416	0.94856	-246.07751	-223.83545	49.89134	328.99551	260.84500	55.49026	370.97534	-63.54393	688.33026	-790.02234	-10.22616	531.88947	-330.13531	145.25859	534.86371	-323.64047	-54.65607	586.54462	551.21588	93.22089	585.77655	559.29034	
4413	44.120	-188.95056	-3.43218	-281.20825	298.40494	0.48934	-246.02780	-223.69742	50.17164	328.74557	261.13007	55.65422	370.91208	-60.98407	681.15454	-790.26630	-10.09268	530.39703	-330.07184	145.18144	533.62085	-323.70358	-54.81542	588.16254	550.66248	93.01049	587.58618	558.82623	
4414	44.130	-188.87987	-3.62872	-281.25995	298.64828	0.37196	-246.16559	-223.57997	50.39191	328.59045	261.79163	56.12349	370.74112	-60.67164	674.55658	-791.59753	-10.02354	529.10669	-330.09451	145.45697	532.29681	-323.71164	-54.11163	589.87689	550.84589	93.25239	589.40143	558.60022	
4415	44.140	-188.79422	-3.84091	-281.28613	298.75934	0.33270	-246.14925	-223.34993	50.57864	328.51471	262.10077	56.64270	370.54285	-62.08250	668.42120	-793.80945	-9.85908	527.25360	-330.06854	145.28537	530.71167	-323.76282	-54.10671	591.76483	550.47211	93.62283	591.28253	558.34943	
4416	44.150	-188.64124	-4.05297	-281.29257	299.05478	0.50979	-246.00459	-223.16205	50.69361	328.41373	262.51062	57.00998	370.47330	-61.79256	663.30896	-794.59552	-9.55194	525.57544	-330.10327	145.29201	528.89850	-323.87186	-53.95959	593.76672	550.05792	93.67902	593.31464	558.06104	
4417	44.160	-188.35323	-4.25839	-281.25070	299.64621	0.53725	-245.71678	-223.06145	50.73899	328.32745	262.85275	57.18355	370.51608	-61.54106	659.18988	-794.97559	-9.52453	523.73022	-330.19226	145.45067	526.88257	-323.58170	-53.83243	595.63550	549.72418	93.69137	595.29614	557.70929	
